<svg xmlns="http://www.w3.org/2000/svg" xmlns:xlink="http://www.w3.org/1999/xlink" version="1.1" width="256" height="256" viewBox="0 0 256 256" xml:space="preserve">
<desc>Created with Fabric.js 1.7.22</desc>
<defs>
</defs>
<g transform="translate(128 128) scale(0.055 0.055)" style="">
	<g style="stroke: none; stroke-width: 0; stroke-dasharray: none; stroke-linecap: butt; stroke-linejoin: miter; stroke-miterlimit: 10; fill: none; fill-rule: nonzero; opacity: 1;" transform="translate(-175.05 -175.05000000000004) scale(3.89 3.89)" >
	<path d="M 39.171 89.282 C 17.572 89.282 0 71.71 0 50.111 c 0 -18.315 12.449 -34 30.273 -38.144 c 0.689 -0.159 1.399 0.185 1.699 0.827 c 0.3 0.643 0.108 1.408 -0.459 1.833 c -8.154 6.12 -12.83 15.467 -12.83 25.646 c 0 17.67 14.375 32.045 32.046 32.045 c 8.346 0 16.252 -3.199 22.263 -9.008 c 0.51 -0.494 1.296 -0.562 1.884 -0.162 c 0.588 0.398 0.815 1.153 0.546 1.811 C 69.362 79.735 55.134 89.282 39.171 89.282 z" style="stroke: none; stroke-width: 1; stroke-dasharray: none; stroke-linecap: butt; stroke-linejoin: miter; stroke-miterlimit: 10; fill: rgb(230,231,232); fill-rule: nonzero; opacity: 1;" transform=" matrix(1 0 0 1 0 0) " stroke-linecap="round" />
	<path d="M 39.884 52.374 c -0.311 0 -0.62 -0.097 -0.882 -0.286 c -0.462 -0.336 -0.693 -0.904 -0.597 -1.468 l 1.416 -8.255 l -5.998 -5.846 c -0.409 -0.398 -0.556 -0.995 -0.38 -1.538 c 0.177 -0.543 0.646 -0.939 1.211 -1.021 l 8.289 -1.205 l 3.707 -7.511 c 0.252 -0.512 0.773 -0.836 1.345 -0.836 s 1.093 0.324 1.345 0.836 l 3.707 7.511 l 8.289 1.205 c 0.564 0.082 1.034 0.478 1.211 1.021 c 0.176 0.543 0.029 1.139 -0.38 1.538 l -5.998 5.847 l 1.416 8.255 c 0.097 0.563 -0.135 1.132 -0.597 1.468 c -0.463 0.336 -1.074 0.38 -1.58 0.114 l -7.413 -3.898 l -7.413 3.898 C 40.362 52.317 40.123 52.374 39.884 52.374 z" style="stroke: none; stroke-width: 1; stroke-dasharray: none; stroke-linecap: butt; stroke-linejoin: miter; stroke-miterlimit: 10; fill: rgb(232,193,68); fill-rule: nonzero; opacity: 1;" transform=" matrix(1 0 0 1 0 0) " stroke-linecap="round" />
	<path d="M 58.871 22.618 c -0.311 0 -0.62 -0.097 -0.882 -0.287 c -0.462 -0.335 -0.693 -0.904 -0.597 -1.467 l 1.04 -6.062 l -4.403 -4.292 c -0.409 -0.399 -0.556 -0.995 -0.38 -1.538 c 0.177 -0.543 0.646 -0.939 1.211 -1.021 l 6.085 -0.884 l 2.723 -5.515 c 0.252 -0.512 0.773 -0.836 1.345 -0.836 l 0 0 c 0.571 0 1.093 0.324 1.345 0.836 l 2.722 5.514 l 6.085 0.884 c 0.564 0.082 1.034 0.478 1.211 1.021 c 0.176 0.543 0.029 1.139 -0.38 1.538 l -4.403 4.292 l 1.04 6.062 c 0.097 0.563 -0.135 1.131 -0.597 1.467 c -0.462 0.336 -1.074 0.38 -1.58 0.114 l -5.442 -2.861 l -5.443 2.861 C 59.35 22.561 59.11 22.618 58.871 22.618 z" style="stroke: none; stroke-width: 1; stroke-dasharray: none; stroke-linecap: butt; stroke-linejoin: miter; stroke-miterlimit: 10; fill: rgb(232,193,68); fill-rule: nonzero; opacity: 1;" transform=" matrix(1 0 0 1 0 0) " stroke-linecap="round" />
	<path d="M 75.883 54.709 c -0.311 0 -0.62 -0.097 -0.882 -0.286 c -0.462 -0.336 -0.693 -0.904 -0.597 -1.468 l 0.787 -4.589 l -3.334 -3.25 c -0.409 -0.399 -0.556 -0.995 -0.38 -1.538 c 0.177 -0.543 0.646 -0.939 1.211 -1.021 l 4.607 -0.669 l 2.062 -4.176 c 0.252 -0.512 0.773 -0.836 1.345 -0.836 l 0 0 c 0.571 0 1.093 0.324 1.345 0.836 l 2.061 4.175 l 4.608 0.669 c 0.564 0.082 1.034 0.478 1.211 1.021 s 0.029 1.139 -0.38 1.538 l -3.335 3.25 L 87 52.955 c 0.097 0.563 -0.135 1.132 -0.597 1.468 c -0.463 0.336 -1.075 0.379 -1.58 0.114 l -4.121 -2.167 l -4.121 2.167 C 76.361 54.652 76.122 54.709 75.883 54.709 z" style="stroke: none; stroke-width: 1; stroke-dasharray: none; stroke-linecap: butt; stroke-linejoin: miter; stroke-miterlimit: 10; fill: rgb(232,193,68); fill-rule: nonzero; opacity: 1;" transform=" matrix(1 0 0 1 0 0) " stroke-linecap="round" />
</g>
</g>
</svg>